<svg width="29" height="27" viewBox="0 0 29 27" fill="none" xmlns="http://www.w3.org/2000/svg">
<path d="M14.5 0.588379C14.3738 0.588379 14.2482 0.62701 14.1409 0.70541L0.800899 10.7581C0.551499 10.9485 0.505144 11.3003 0.702344 11.5467C0.899544 11.7875 1.2639 11.8322 1.5191 11.6418L2.32 11.0381V25.7599C2.32 26.0679 2.581 26.3199 2.9 26.3199H11.02V16.2399H17.98V26.3199H26.1C26.419 26.3199 26.68 26.0679 26.68 25.7599V11.0381L27.4809 11.6418C27.5911 11.7202 27.7124 11.7599 27.84 11.7599C28.014 11.7599 28.1817 11.6867 28.2977 11.5467C28.4949 11.3003 28.4485 10.9485 28.1991 10.7581L14.8591 0.70541C14.7518 0.62701 14.6261 0.588379 14.5 0.588379ZM20.3 2.79994V3.38838L23.78 6.009V2.79994H20.3Z" fill="white"/>
</svg>
